HIERARCHY
ROOT Hips
{
	OFFSET -3.958830 18.904000 13.208200
	CHANNELS 6 Xposition Yposition Zposition Zrotation Yrotation Xrotation 
	JOINT LHipJoint
	{
		OFFSET 0.000000 0.000000 0.000000
		CHANNELS 3 Zrotation Yrotation Xrotation
		JOINT LeftUpLeg
		{
			OFFSET 1.800000 -1.400000 0.085000
			CHANNELS 3 Zrotation Yrotation Xrotation
			JOINT LeftLeg
			{
				OFFSET 2.215000 -6.000000 0.000000
				CHANNELS 3 Zrotation Yrotation Xrotation
				JOINT LeftFoot
				{
					OFFSET 2.500000 -6.900000 0.000000
					CHANNELS 3 Zrotation Yrotation Xrotation
					JOINT LeftToeBase
					{
						OFFSET 0.200000 -0.500000 1.950000
						CHANNELS 3 Zrotation Yrotation Xrotation
						End Site
						{
							OFFSET 0.000000 0.000000 0.000000
						}
					}
				}
			}
		}
	}
	JOINT RHipJoint
	{
		OFFSET 0.000000 0.000000 0.000000
		CHANNELS 3 Zrotation Yrotation Xrotation
		JOINT RightUpLeg
		{
			OFFSET -1.800000 -1.400000 0.085000
			CHANNELS 3 Zrotation Yrotation Xrotation
			JOINT RightLeg
			{
				OFFSET -2.215000 -6.000000 0.000000
				CHANNELS 3 Zrotation Yrotation Xrotation
				JOINT RightFoot
				{
					OFFSET -2.500000 -6.900000 0.000000
					CHANNELS 3 Zrotation Yrotation Xrotation
					JOINT RightToeBase
					{
						OFFSET -0.200000 -0.500000 1.950000
						CHANNELS 3 Zrotation Yrotation Xrotation
						End Site
						{
							OFFSET 0.000000 0.000000 0.000000
						}
					}
				}
			}
		}
	}
	JOINT LowerBack
	{
		OFFSET 0.000000 0.000000 0.000000
		CHANNELS 3 Zrotation Yrotation Xrotation
		JOINT Spine
		{
			OFFSET -0.087000 1.940000 -0.288900
			CHANNELS 3 Zrotation Yrotation Xrotation
			JOINT Spine1
			{
				OFFSET 0.000000 1.950000 0.060000
				CHANNELS 3 Zrotation Yrotation Xrotation
				JOINT Neck
				{
					OFFSET 0.000000 0.000000 0.000000
					CHANNELS 3 Zrotation Yrotation Xrotation
					JOINT Neck1
					{
						OFFSET 0.000000 1.600000 0.340000
						CHANNELS 3 Zrotation Yrotation Xrotation
						JOINT Head
						{
							OFFSET 0.000000 1.667000 -0.240000
							CHANNELS 3 Zrotation Yrotation Xrotation
							End Site
							{
								OFFSET 0.000000 0.000000 0.000000
							}
						}
					}
				}
				JOINT LeftShoulder
				{
					OFFSET 0.000000 0.000000 0.000000
					CHANNELS 3 Zrotation Yrotation Xrotation
					JOINT LeftArm
					{
						OFFSET 2.700000 1.550000 -0.730000
						CHANNELS 3 Zrotation Yrotation Xrotation
						JOINT LeftForeArm
						{
							OFFSET 5.450000 0.000000 0.000000
							CHANNELS 3 Zrotation Yrotation Xrotation
							JOINT LeftHand
							{
								OFFSET 3.450000 0.000000 0.000000
								CHANNELS 3 Zrotation Yrotation Xrotation
								JOINT LeftHandIndex1
								{
									OFFSET 0.750000 0.000000 0.000000
									CHANNELS 3 Zrotation Yrotation Xrotation
									End Site
									{
										OFFSET 0.000000 0.000000 0.000000
									}
								}
							}
						}
					}
				}
				JOINT RightShoulder
				{
					OFFSET 0.000000 0.000000 0.000000
					CHANNELS 3 Zrotation Yrotation Xrotation
					JOINT RightArm
					{
						OFFSET -2.700000 1.550000 -0.730000
						CHANNELS 3 Zrotation Yrotation Xrotation
						JOINT RightForeArm
						{
							OFFSET -5.450000 0.000000 0.000000
							CHANNELS 3 Zrotation Yrotation Xrotation
							JOINT RightHand
							{
								OFFSET -3.450000 0.000000 0.000000
								CHANNELS 3 Zrotation Yrotation Xrotation
								JOINT RightHandIndex1
								{
									OFFSET -0.750000 0.000000 0.000000
									CHANNELS 3 Zrotation Yrotation Xrotation
									End Site
									{
										OFFSET 0.000000 0.000000 0.000000
									}
								}
							}
						}
					}
				}
			}
		}
	}
}
MOTION
Frames: 9
Frame Time: 0.016667
-2.740620 16.576820 -4.256750 -6.093435 -18.140381 -4.354958 -15.863290 9.772875 6.546496 33.408835 -0.146054 -35.261695 -54.837684 39.617656 39.153242 2.201784 14.330096 0.139929 -0.011650 -0.229840 -0.269760 18.314753 -6.625563 4.107976 -31.473797 7.897041 -34.093829 42.549666 -24.689749 35.084874 -2.122538 -9.807810 0.767495 -0.381700 0.654520 0.845610 -3.154830 -3.157124 -10.382964 12.325050 -4.526472 50.390948 -5.493956 1.681268 -4.255229 4.628533 -8.145226 -9.635955 -17.222480 9.690236 39.030273 -3.811530 2.112660 -32.158050 -19.504391 0.857734 0.954767 -42.326569 7.889618 -16.722927 61.740393 -72.121541 -43.505799 -3.152966 1.627413 1.058450 -0.021330 0.567590 0.423610 9.889470 8.797889 5.705634 52.308526 5.701208 -23.514476 106.372543 87.773267 106.407598 1.517192 4.417766 -0.109840 0.413290 0.325360 0.254750 
-2.767360 16.466560 -4.261360 -5.776027 -18.755213 -6.051456 -15.844140 9.807619 6.437857 33.427584 -0.125338 -33.830114 -53.402704 40.954071 41.511158 2.248774 14.551143 0.079625 0.002500 -0.215520 -0.268700 18.323914 -6.599285 4.192835 -32.825236 8.028127 -33.388487 44.761821 -25.686387 35.169103 -2.215221 -10.052588 0.704107 -0.370510 0.645810 0.834130 -3.202882 -3.149836 -10.385644 12.602818 -4.960108 52.118054 -6.153905 1.384733 -2.349164 4.883670 -8.573315 -10.924727 -18.396729 10.287106 39.156976 -3.366260 1.518820 -32.181430 -18.502340 -0.889777 1.588030 -41.914958 9.716643 -18.069081 59.364351 -72.007219 -42.148204 -3.118343 1.711115 1.074460 -0.039330 0.575960 0.429330 8.550518 10.805193 7.698238 51.202546 6.456063 -9.568720 -105.563484 76.531599 -101.195913 2.945314 3.861982 -0.112500 0.430190 0.322600 0.257080 
-2.775970 16.383420 -4.258470 -5.969503 -19.198306 -7.183608 -15.853705 9.831025 6.381635 33.516438 -0.287721 -33.178343 -50.253704 42.083510 45.170295 2.319455 14.873241 -0.021651 0.035830 -0.173190 -0.244600 18.319596 -6.528948 4.216862 -33.408649 8.195494 -32.914934 46.386809 -26.625477 35.447801 -2.295838 -10.257359 0.645527 -0.352130 0.608480 0.836490 -3.198557 -3.243580 -10.350201 13.472832 -5.549481 53.060772 -6.492601 1.219511 -1.088326 5.292353 -8.986906 -11.732359 -19.396790 10.434833 39.545863 -4.354440 0.904560 -31.699600 -18.074952 -2.422685 2.348059 -41.842594 11.372999 -19.023704 53.066395 -72.353458 -38.531120 -3.122958 1.968968 1.060950 -0.053170 0.592330 0.428140 7.305417 12.855479 8.363654 48.836243 5.171075 -16.542404 -144.630897 82.052583 -153.250040 2.102065 -1.450314 -0.083290 0.412880 0.302990 0.260430 
-2.774720 16.342780 -4.261990 -6.080316 -19.496305 -8.288162 -15.832302 9.868916 6.305279 33.194707 -0.636579 -32.342384 -47.035879 42.240939 48.153119 2.350227 15.147173 -0.108272 0.055460 -0.146840 -0.230090 18.324673 -6.573167 4.220735 -33.568446 8.413951 -32.284330 46.949977 -27.126859 35.938251 -2.348891 -10.377345 0.605947 -0.334800 0.593910 0.832480 -3.232993 -3.201089 -10.318813 14.109103 -6.184720 54.227885 -7.132507 0.882327 -0.327038 5.731566 -9.265282 -12.248954 -20.071979 10.714464 39.663201 -4.138080 0.424860 -31.980420 -16.921178 -3.546245 3.169389 -42.321950 12.473979 -19.666952 43.580699 -72.842254 -33.084586 -3.155383 2.277337 1.068450 -0.068110 0.608710 0.427510 5.435014 14.260122 8.170453 48.034921 4.381233 -23.511326 143.393687 81.942091 130.288931 1.777361 -0.254160 -0.077310 0.427140 0.298110 0.262160 
-2.774770 16.344610 -4.268270 -6.096271 -19.919275 -9.016560 -15.817702 9.975721 6.226190 32.683370 -0.851683 -31.608237 -43.924550 41.757225 50.441179 2.330945 15.356215 -0.192527 0.062160 -0.142520 -0.223090 18.312917 -6.641159 4.196513 -33.163295 8.792797 -31.556127 46.802132 -26.919666 36.040941 -2.361201 -10.366696 0.603805 -0.328690 0.587040 0.847660 -3.224822 -3.226700 -10.290394 14.258971 -6.333097 54.754718 -7.670285 0.826330 0.480196 6.405661 -9.008880 -12.831138 -19.996995 10.848227 40.445352 -4.874860 0.403380 -31.834680 -15.426397 -4.655294 3.994406 -43.054475 13.019363 -19.924737 30.318354 -72.798210 -25.017745 -3.226083 2.596524 1.090610 -0.064940 0.625750 0.420860 2.806684 15.226677 7.915050 48.446098 4.767385 -24.420911 110.217502 80.545033 89.870565 2.899774 3.591338 -0.076900 0.437440 0.314350 0.251490 
-2.762270 16.385020 -4.272510 -6.222615 -20.493881 -9.042386 -15.777892 10.062525 6.139512 31.969259 -0.851570 -31.366593 -40.983672 40.793563 51.978470 2.337666 15.401896 -0.234809 0.107240 -0.077140 -0.198990 18.325883 -6.749965 4.178782 -32.365156 9.287278 -31.383079 45.767620 -26.204983 36.169793 -2.341936 -10.239847 0.631736 -0.306370 0.542670 0.843460 -3.297524 -3.137141 -10.222300 14.798620 -6.559568 53.933072 -8.117032 0.839498 1.705336 6.488062 -9.092776 -13.488059 -20.937803 10.931759 41.417757 -3.927120 -0.239200 -31.754640 -14.699770 -5.801358 4.718216 -44.230112 13.322613 -20.269241 17.055925 -71.563733 -16.434085 -3.209903 2.842747 1.080880 -0.095100 0.656410 0.425270 2.040086 16.240008 8.806680 47.594195 6.378021 -13.591017 -93.659497 89.525693 -112.816029 4.424773 4.167802 -0.036490 0.422030 0.282370 0.262930 
-2.741360 16.460220 -4.277090 -6.278821 -20.831726 -8.673317 -15.715028 10.157397 6.033561 30.981252 -0.904430 -31.204785 -38.448801 39.431196 52.717982 2.273814 15.391201 -0.256544 0.093020 -0.095090 -0.216120 18.349738 -6.943941 4.142633 -31.207583 9.692711 -31.413591 43.595469 -25.132333 36.497613 -2.260634 -10.038114 0.692602 -0.307970 0.550540 0.817390 -3.407634 -2.931063 -10.126432 15.815802 -6.731964 52.590587 -8.587641 1.220457 2.381594 6.254346 -9.156789 -14.480086 -21.955780 11.047202 43.087787 -2.877730 -0.904740 -30.562630 -15.093083 -7.735418 5.386560 -44.344987 13.388479 -20.149811 4.953326 -69.272345 -8.780321 -3.234604 2.942627 1.091790 -0.099180 0.643830 0.418410 3.007818 18.213309 10.071673 46.162342 5.131574 -12.937140 -102.936122 89.645534 -124.838135 3.688375 1.321973 -0.054540 0.446670 0.299960 0.257940 
-2.712440 16.570560 -4.277510 -5.837655 -20.439115 -8.365805 -15.654363 10.355581 5.887963 29.157264 -1.509562 -31.127515 -35.799957 37.462540 53.188996 2.188535 15.309519 -0.266690 0.079150 -0.121760 -0.238920 18.349742 -7.183519 4.065252 -30.269016 9.532525 -30.927794 40.946264 -23.800520 36.464171 -2.151579 -9.750132 0.761069 -0.318540 0.565950 0.815600 -3.439907 -2.881763 -10.010954 16.008085 -6.486552 50.835220 -8.379305 1.516009 2.517447 5.928734 -9.040176 -15.390501 -22.755098 11.390285 45.513325 -1.353010 -1.400590 -28.593970 -15.055943 -9.648937 6.199793 -45.568852 12.734583 -20.087708 -1.876791 -65.518655 -4.718348 -3.258470 2.970667 1.106710 -0.097940 0.635700 0.414640 3.774673 20.108838 10.845118 45.886266 3.460851 -15.772805 67.812470 85.813748 44.112317 2.774749 -0.502966 -0.062910 0.452260 0.324350 0.256240 
-2.677300 16.693810 -4.274860 -5.420826 -19.872780 -7.567767 -15.603213 10.531724 5.796683 27.528356 -2.111688 -31.585689 -33.349474 35.561180 53.552107 2.111973 15.172682 -0.254961 0.072890 -0.134720 -0.243760 18.347635 -7.433836 3.956096 -28.958367 9.243980 -30.788478 37.576408 -22.199920 36.389739 -2.013344 -9.352113 0.864742 -0.329100 0.576170 0.824210 -3.454470 -2.809230 -9.912121 15.752570 -6.102943 48.612481 -8.114749 1.678099 2.260137 5.636289 -8.714004 -15.760471 -22.378557 11.531125 47.160700 -0.425480 -1.183580 -26.994570 -14.579459 -10.517645 6.724859 -47.579753 11.812670 -19.990763 -6.061765 -62.038351 -2.527262 -3.294595 2.981799 1.104020 -0.088160 0.634000 0.410960 3.927286 20.819191 10.919739 46.721038 3.167759 -17.774520 58.885767 79.804237 34.283819 2.328901 -1.134224 -0.056350 0.446330 0.335470 0.255080 
